{
	"asset":{
		"generator":"Khronos glTF Blender I/O v3.6.27",
		"version":"2.0"
	},
	"scene":0,
	"scenes":[
		{
			"extras":{
				"sun_pos_properties":{
					"show_surface":0,
					"show_analemmas":0,
					"show_north":0,
					"latitude":0.0,
					"day_of_year":127,
					"sun_object":{},
					"object_collection":{}
				},
				"skinify":{
					"connect_mesh":0,
					"connect_parents":0,
					"generate_all":0,
					"thickness":0.800000011920929,
					"finger_thickness":0.25,
					"apply_mod":1,
					"parent_armature":1,
					"sub_level":1
				},
				"coa_tools2":{},
				"matlayer_layer_stack":{
					"selected_layer_index":0
				},
				"matlayer_export_templates":[
					{
						"name":"PBR Metallic Roughness"
					},
					{
						"name":"PBR Specular Glossiness"
					},
					{
						"name":"Unity URP Metallic"
					},
					{
						"name":"Unity URP Specular"
					},
					{
						"name":"Unreal Engine 4 (Channel Packed)"
					},
					{
						"name":"Cry Engine"
					},
					{
						"name":"Painted Model (Diffuse)"
					},
					{
						"name":"Unlit Painted Model (Diffuse)"
					},
					{
						"name":"Mesh Maps"
					}
				],
				"ypui":{
					"expand_channels":0,
					"expand_mask_channels":0,
					"show_bake_targets":0,
					"show_channels":1,
					"show_layers":1,
					"show_materials":0,
					"show_object":0,
					"show_stats":0,
					"show_support":0,
					"tree_name":"Ucupaint Material"
				},
				"texToolsSettings":{},
				"matlayer_mask_stack":{},
				"b_settings":1,
				"b_vr_controllers":0,
				"b_renderer":0,
				"b_aa":1,
				"b_colorManagement":1,
				"b_player":1,
				"b_interactive":0,
				"b_export":1,
				"s_project_name":"Custom_property_test",
				"s_output":"exporting...",
				"jiggle_tree":{},
				"wiggle":{},
				"jiggle_rate":1.0,
				"b_camera_cube":1,
				"b_cubemap":1,
				"b_cast_shadows":1,
				"b_cubemap_background":1,
				"b_show_env_sky":1,
				"b_raycast":1,
				"ve_edit":{}
			},
			"name":"Scene",
			"nodes":[
				0
			]
		}
	],
	"nodes":[
		{
			"extras":{
				"coa_tools2":{},
				"bluik_object_selector":{},
				"AFRAME_ANIMATION":"property: rotation; from: 0 0 0; to: 0 360 0; dur: 20000; dir: normal; loop: true;  easing: linear ",
				"AFRAME_ID":"suz"
			},
			"mesh":0,
			"name":"Object"
		}
	],
	"materials":[
		{
			"doubleSided":true,
			"emissiveFactor":[
				0.017129148798125216,
				0.012123157264637308,
				0.024629223713714232
			],
			"name":"mat_Suzanne",
			"pbrMetallicRoughness":{
				"baseColorFactor":[
					0.717285692691803,
					0.36709731817245483,
					0.8000000715255737,
					1
				],
				"metallicFactor":0,
				"roughnessFactor":0.19298246502876282
			}
		}
	],
	"meshes":[
		{
			"name":"Suzanney",
			"primitives":[
				{
					"attributes":{
						"POSITION":0,
						"NORMAL":1,
						"TEXCOORD_0":2,
						"TANGENT":3
					},
					"indices":4,
					"material":0
				}
			]
		}
	],
	"accessors":[
		{
			"bufferView":0,
			"componentType":5126,
			"count":2111,
			"max":[
				1.1148759126663208,
				0.648323655128479,
				0.5672186613082886
			],
			"min":[
				-0.5530301928520203,
				-0.7673650979995728,
				-1.1292649507522583
			],
			"type":"VEC3"
		},
		{
			"bufferView":1,
			"componentType":5126,
			"count":2111,
			"type":"VEC3"
		},
		{
			"bufferView":2,
			"componentType":5126,
			"count":2111,
			"type":"VEC2"
		},
		{
			"bufferView":3,
			"componentType":5126,
			"count":2111,
			"type":"VEC4"
		},
		{
			"bufferView":4,
			"componentType":5123,
			"count":11808,
			"type":"SCALAR"
		}
	],
	"bufferViews":[
		{
			"buffer":0,
			"byteLength":25332,
			"byteOffset":0,
			"target":34962
		},
		{
			"buffer":0,
			"byteLength":25332,
			"byteOffset":25332,
			"target":34962
		},
		{
			"buffer":0,
			"byteLength":16888,
			"byteOffset":50664,
			"target":34962
		},
		{
			"buffer":0,
			"byteLength":33776,
			"byteOffset":67552,
			"target":34962
		},
		{
			"buffer":0,
			"byteLength":23616,
			"byteOffset":101328,
			"target":34963
		}
	],
	"buffers":[
		{
			"byteLength":124944,
			"uri":"data:application/octet-stream;base64,"
		}
	]
}
