{
	"asset":{
		"generator":"Khronos glTF Blender I/O v3.5.30",
		"version":"2.0"
	},
	"scene":0,
	"scenes":[
		{
			"extras":{
				"ypui":{
					"expand_channels":0,
					"expand_mask_channels":0,
					"show_channels":1,
					"show_layers":1,
					"show_materials":0,
					"show_object":0,
					"show_stats":0,
					"show_support":0,
					"tree_name":""
				},
				"LLStudio":{},
				"hubs_settings":{},
				"kekit":{},
				"bake_settings":{
					"bake_image_name":""
				},
				"yp":{
					"last_object":"Plano",
					"last_mode":"OBJECT",
					"edit_image_editor_area_index":-1
				},
				"matlayer_panel_properties":{
					"sections":2
				},
				"hubs_component_list":{},
				"sketcher":{
					"entities":{},
					"constraints":{},
					"version":[
						0,
						27,
						1
					]
				},
				"sun_pos_properties":{
					"show_surface":0,
					"show_analemmas":0,
					"show_north":0,
					"day_of_year":174,
					"sun_object":{},
					"object_collection":{}
				},
				"modifier_list":{
					"pinned_object":{}
				},
				"matlayer_layer_stack":{
					"layer_index":1,
					"auto_update_layer_properties":1,
					"layer_property_tab":0,
					"material_property_tab":0
				},
				"matlayer_texture_set_settings":{
					"global_material_channel_toggles":{}
				},
				"matlayer_settings":{
					"total_node_count":0,
					"total_node_link_count":0
				},
				"matlayer_material_filter_stack":{
					"auto_update_filter_properties":1,
					"selected_filter_index":0
				},
				"matlayer_mask_filter_stack":{
					"auto_update_properties":1,
					"selected_mask_filter_index":0
				},
				"matlayer_mask_stack":{
					"selected_mask_index":0,
					"auto_update_mask_properties":1,
					"mask_property_tab":0
				},
				"matlayer_layers":[],
				"matlayer_material_filters":[],
				"matlayer_masks":[
					{
						"stack_index":0,
						"name":"MASK",
						"custom_mask_node_tree":{
							"name":"ML_TRIPLANAR",
							"type":"ShaderNodeTree"
						},
						"projection":{
							"mode":1,
							"texture_extension":0,
							"texture_interpolation":0,
							"offset_x":0.0,
							"offset_y":0.0,
							"offset_z":0.0,
							"rotation_x":1.6110732555389404,
							"rotation_y":3.7054686546325684,
							"rotation_z":1.7721805572509766,
							"scale_x":1.0,
							"scale_y":1.0,
							"scale_z":1.0,
							"blending":4.0
						},
						"mask_image":{
							"name":"Finishes.Flooring.Carpet.Saxony.Squares.Bump.jpg",
							"type":"Image"
						},
						"use_alpha":0,
						"blur":0
					}
				],
				"matlayer_mask_filters":[],
				"matlayer_export_settings":{},
				"animall_properties":{},
				"print_3d":{},
				"sure_uv_settings":{
					"teximage":{}
				},
				"sprite_img_import":{},
				"mi_settings":{},
				"b_export":1,
				"s_project_name":"custom_property_test",
				"s_output":"exporting...",
				"b_renderer":1,
				"b_aa":1,
				"b_colorManagement":1,
				"b_settings":1,
				"s_aframe_version":"1.4.2",
				"b_cubemap":1,
				"b_cast_shadows":1,
				"b_physicallyCorrectLights":0,
				"b_cubemap_background":1,
				"b_camera_cube":1,
				"b_show_env_sky":1,
				"b_interactive":1
			},
			"name":"Scene",
			"nodes":[
				0
			]
		}
	],
	"nodes":[
		{
			"extras":{
				"asset_bridge":{}
			},
			"mesh":0,
			"name":"Plano",
			"rotation":[
				0.7071068286895752,
				0,
				0,
				0.7071068286895752
			]
		}
	],
	"materials":[
		{
			"doubleSided":true,
			"extras":{
				"asset_bridge":{},
				"mmd_material":{},
				"yp":{
					"active_ypaint_node":""
				}
			},
			"name":"Material.002",
			"pbrMetallicRoughness":{
				"baseColorTexture":{
					"index":0
				},
				"metallicFactor":0,
				"roughnessFactor":0.5
			}
		}
	],
	"meshes":[
		{
			"name":"Plano.003",
			"primitives":[
				{
					"attributes":{
						"POSITION":0,
						"TEXCOORD_0":1,
						"NORMAL":2
					},
					"indices":3,
					"material":0
				}
			]
		}
	],
	"textures":[
		{
			"sampler":0,
			"source":0
		}
	],
	"images":[
		{
			"bufferView":4,
			"mimeType":"image/jpeg",
			"name":"Finishes.Tiling.Ceramic.Mosaic.Floral"
		}
	],
	"accessors":[
		{
			"bufferView":0,
			"componentType":5126,
			"count":20,
			"max":[
				1,
				0,
				1
			],
			"min":[
				-1,
				0,
				-1
			],
			"type":"VEC3"
		},
		{
			"bufferView":1,
			"componentType":5126,
			"count":20,
			"type":"VEC2"
		},
		{
			"bufferView":2,
			"componentType":5126,
			"count":20,
			"type":"VEC3"
		},
		{
			"bufferView":3,
			"componentType":5123,
			"count":54,
			"type":"SCALAR"
		}
	],
	"bufferViews":[
		{
			"buffer":0,
			"byteLength":240,
			"byteOffset":0,
			"target":34962
		},
		{
			"buffer":0,
			"byteLength":160,
			"byteOffset":240,
			"target":34962
		},
		{
			"buffer":0,
			"byteLength":240,
			"byteOffset":400,
			"target":34962
		},
		{
			"buffer":0,
			"byteLength":108,
			"byteOffset":640,
			"target":34963
		},
		{
			"buffer":0,
			"byteLength":268555,
			"byteOffset":748
		}
	],
	"samplers":[
		{
			"magFilter":9729,
			"minFilter":9987
		}
	],
	"buffers":[
		{
			"byteLength":269304,
			"uri":"data:application/octet-stream;base64,"
		}
	]
}
