{
	"asset":{
		"generator":"Khronos glTF Blender I/O v3.6.27",
		"version":"2.0"
	},
	"extensionsUsed":[
		"KHR_materials_specular",
		"KHR_materials_ior"
	],
	"scene":0,
	"scenes":[
		{
			"extras":{
				"sun_pos_properties":{
					"show_surface":0,
					"show_analemmas":0,
					"show_north":0,
					"latitude":0.0,
					"day_of_year":127,
					"sun_object":{},
					"object_collection":{}
				},
				"skinify":{
					"connect_mesh":0,
					"connect_parents":0,
					"generate_all":0,
					"thickness":0.800000011920929,
					"finger_thickness":0.25,
					"apply_mod":1,
					"parent_armature":1,
					"sub_level":1
				},
				"coa_tools2":{},
				"matlayer_layer_stack":{
					"selected_layer_index":0
				},
				"matlayer_export_templates":[
					{
						"name":"PBR Metallic Roughness"
					},
					{
						"name":"PBR Specular Glossiness"
					},
					{
						"name":"Unity URP Metallic"
					},
					{
						"name":"Unity URP Specular"
					},
					{
						"name":"Unreal Engine 4 (Channel Packed)"
					},
					{
						"name":"Cry Engine"
					},
					{
						"name":"Painted Model (Diffuse)"
					},
					{
						"name":"Unlit Painted Model (Diffuse)"
					},
					{
						"name":"Mesh Maps"
					}
				],
				"ypui":{
					"expand_channels":0,
					"expand_mask_channels":0,
					"show_bake_targets":0,
					"show_channels":1,
					"show_layers":1,
					"show_materials":0,
					"show_object":0,
					"show_stats":0,
					"show_support":0,
					"tree_name":"Ucupaint Material"
				},
				"texToolsSettings":{},
				"matlayer_mask_stack":{},
				"b_settings":1,
				"b_vr_controllers":0,
				"b_renderer":0,
				"b_aa":1,
				"b_colorManagement":1,
				"b_player":1,
				"b_interactive":0,
				"b_export":1,
				"s_project_name":"Custom_property_test",
				"s_output":"exporting...",
				"jiggle_tree":{},
				"wiggle":{},
				"jiggle_rate":1.0,
				"b_camera_cube":1,
				"b_cubemap":1,
				"b_cast_shadows":1,
				"b_cubemap_background":1,
				"b_show_env_sky":1,
				"b_raycast":1,
				"ve_edit":{}
			},
			"name":"Scene",
			"nodes":[
				0
			]
		}
	],
	"nodes":[
		{
			"extras":{
				"coa_tools2":{},
				"bluik_object_selector":{}
			},
			"mesh":0,
			"name":"Plane"
		}
	],
	"materials":[
		{
			"doubleSided":true,
			"emissiveFactor":[
				0.008554455020345075,
				0.008386030918151599,
				0.010307391886523243
			],
			"extensions":{
				"KHR_materials_specular":{
					"specularColorFactor":[
						0,
						0,
						0
					]
				},
				"KHR_materials_ior":{
					"ior":1.4500000476837158
				}
			},
			"name":"mat_suelo",
			"pbrMetallicRoughness":{
				"baseColorFactor":[
					0.37679585814476013,
					0.36880865693092346,
					0.46041080355644226,
					1
				],
				"metallicFactor":0
			}
		}
	],
	"meshes":[
		{
			"name":"Plane",
			"primitives":[
				{
					"attributes":{
						"POSITION":0,
						"NORMAL":1,
						"TEXCOORD_0":2,
						"TANGENT":3
					},
					"indices":4,
					"material":0
				}
			]
		}
	],
	"accessors":[
		{
			"bufferView":0,
			"componentType":5126,
			"count":4,
			"max":[
				16.882951736450195,
				0,
				16.882951736450195
			],
			"min":[
				-16.882951736450195,
				0,
				-16.882951736450195
			],
			"type":"VEC3"
		},
		{
			"bufferView":1,
			"componentType":5126,
			"count":4,
			"type":"VEC3"
		},
		{
			"bufferView":2,
			"componentType":5126,
			"count":4,
			"type":"VEC2"
		},
		{
			"bufferView":3,
			"componentType":5126,
			"count":4,
			"type":"VEC4"
		},
		{
			"bufferView":4,
			"componentType":5123,
			"count":6,
			"type":"SCALAR"
		}
	],
	"bufferViews":[
		{
			"buffer":0,
			"byteLength":48,
			"byteOffset":0,
			"target":34962
		},
		{
			"buffer":0,
			"byteLength":48,
			"byteOffset":48,
			"target":34962
		},
		{
			"buffer":0,
			"byteLength":32,
			"byteOffset":96,
			"target":34962
		},
		{
			"buffer":0,
			"byteLength":64,
			"byteOffset":128,
			"target":34962
		},
		{
			"buffer":0,
			"byteLength":12,
			"byteOffset":192,
			"target":34963
		}
	],
	"buffers":[
		{
			"byteLength":204,
			"uri":"data:application/octet-stream;base64,"
		}
	]
}
